arm26_states
version=1
nRows=17
nColumns=17
inDegrees=yes

# SIMM Motion File Header:
name arm26_states
datacolumns 17
datarows 17
otherdata 1
range 0.73879220 0.79177981
endheader
time	r_shoulder_elev	r_elbow_flex	r_shoulder_elev_u	r_elbow_flex_u	TRIlong.activation	TRIlong.fiber_length	TRIlat.activation	TRIlat.fiber_length	TRImed.activation	TRImed.fiber_length	BIClong.activation	BIClong.fiber_length	BICshort.activation	BICshort.fiber_length	BRA.activation	BRA.fiber_length
      0.73879220	    -13.48420198	     76.86645155	    -19.38247930	     -0.64565790	      0.00000831	      0.15720679	      0.07423065	      0.09921990	      0.07423065	      0.09424072	      0.14330341	      0.11299554	      0.00071878	      0.11215465	      0.00007159	      0.07373397
      0.74183515	    -13.54306042	     76.86419329	    -19.30091875	     -0.83883410	      0.00000823	      0.15717462	      0.07501003	      0.09921444	      0.07501003	      0.09423555	      0.14374586	      0.11301194	      0.00067276	      0.11217806	      0.00006900	      0.07373469
      0.74487810	    -13.60165201	     76.86135491	    -19.20668932	     -1.02588300	      0.00000816	      0.15713740	      0.07580950	      0.09920874	      0.07580950	      0.09423013	      0.14419805	      0.11302882	      0.00063384	      0.11220166	      0.00006676	      0.07373562
      0.74893293	    -13.67924703	     76.85668872	    -19.06308265	     -1.27834158	      0.00000809	      0.15709407	      0.07691132	      0.09920070	      0.07691132	      0.09422249	      0.14481383	      0.11305198	      0.00059709	      0.11223314	      0.00006457	      0.07373716
      0.75198554	    -13.73725314	     76.85250077	    -18.93872189	     -1.46462426	      0.00000805	      0.15705402	      0.07775753	      0.09919432	      0.07775753	      0.09421642	      0.14528809	      0.11306990	      0.00057802	      0.11225679	      0.00006338	      0.07373856
      0.75503815	    -13.79486077	     76.84773557	    -18.80247389	     -1.65866361	      0.00000800	      0.15702170	      0.07860429	      0.09918772	      0.07860429	      0.09421013	      0.14578093	      0.11308818	      0.00055905	      0.11228056	      0.00006225	      0.07374016
      0.75871601	    -13.86368396	     76.84120487	    -18.61950131	     -1.89133796	      0.00000794	      0.15697578	      0.07962423	      0.09917953	      0.07962423	      0.09420231	      0.14639377	      0.11311065	      0.00053564	      0.11230954	      0.00006094	      0.07374235
      0.76202239	    -13.92495384	     76.83459501	    -18.44001747	     -2.10932140	      0.00000789	      0.15694257	      0.08054155	      0.09917194	      0.08054155	      0.09419507	      0.14696208	      0.11313122	      0.00051368	      0.11233602	      0.00005960	      0.07374460
      0.76532877	    -13.98560381	     76.82726459	    -18.24359668	     -2.32320059	      0.00000782	      0.15689971	      0.08145954	      0.09916417	      0.08145954	      0.09418763	      0.14754522	      0.11315212	      0.00049057	      0.11236292	      0.00005799	      0.07374709
      0.76863515	    -14.04558056	     76.81921859	    -18.03380869	     -2.54606692	      0.00000775	      0.15686711	      0.08237907	      0.09915619	      0.08237907	      0.09417999	      0.14813930	      0.11317332	      0.00046682	      0.11239027	      0.00005615	      0.07374985
      0.77194153	    -14.10483782	     76.81043825	    -17.80742609	     -2.76324326	      0.00000769	      0.15682438	      0.08330420	      0.09914800	      0.08330420	      0.09417213	      0.14874236	      0.11319482	      0.00044439	      0.11241799	      0.00005434	      0.07375286
      0.77524791	    -14.16332350	     76.80093292	    -17.56811194	     -2.98864373	      0.00000765	      0.15679232	      0.08423356	      0.09913959	      0.08423356	      0.09416406	      0.14935195	      0.11321661	      0.00042330	      0.11244604	      0.00005255	      0.07375614
      0.77855429	    -14.22099259	     76.79068637	    -17.31251334	     -3.20744388	      0.00000761	      0.15675000	      0.08516060	      0.09913097	      0.08516060	      0.09415577	      0.14996656	      0.11323868	      0.00040189	      0.11247442	      0.00005083	      0.07375967
      0.78186067	    -14.27779414	     76.77971074	    -17.04436342	     -3.43360742	      0.00000755	      0.15671841	      0.08608213	      0.09912215	      0.08608213	      0.09414728	      0.15058499	      0.11326103	      0.00037900	      0.11250315	      0.00004922	      0.07376347
      0.78516705	    -14.33368454	     76.76799312	    -16.76046271	     -3.65220404	      0.00000747	      0.15667681	      0.08700136	      0.09911316	      0.08700136	      0.09413862	      0.15120402	      0.11328365	      0.00035598	      0.11253225	      0.00004779	      0.07376752
      0.78847343	    -14.38861463	     76.75554883	    -16.46442378	     -3.87702199	      0.00000741	      0.15664561	      0.08792808	      0.09910395	      0.08792808	      0.09412974	      0.15181171	      0.11330655	      0.00034032	      0.11256154	      0.00004696	      0.07377183
      0.79177981	    -14.44254195	     76.74236719	    -16.15300535	     -4.09458022	      0.00000736	      0.15660498	      0.08886069	      0.09909452	      0.08886069	      0.09412063	      0.15241030	      0.11332975	      0.00033206	      0.11259086	      0.00004672	      0.07377639
